<?xml version="1.0"?>
<svg version="1.1" xmlns="http://www.w3.org/2000/svg" width="400" height="200" style="border: dashed 2px #aaa"><path fill="#09141c" d="M15.98,116.8l0-2.38l2.1-0.84l0-13.16l-2.1-0.84l0-2.38l6.72-0.14l7.56,12.936l0-9.576l-2.044-0.84l0-2.38l7.98-0.14l0,2.52l-2.1,0.84l0,16.38l-4.676,0l-7.504-12.684l0,9.464l2.184,0.84l0,2.38l-8.12,0z M47.52228,101.4c4.536,0,7.056,2.744,7.056,7.56c0,5.04-2.94,8.12-7.476,8.12c-4.564,0-7.14-2.38-7.14-7.7c0-5.04,2.996-7.98,7.56-7.98z M47.38228,104.76c-2.044,0-3.08,1.12-3.08,4.48c0,3.08,0.896,4.48,2.94,4.48c2.016,0,2.996-1.26,2.996-4.62c0-2.856-0.84-4.34-2.856-4.34z M63.94456,95.1l0,7.784c0.476-0.364,1.876-1.484,4.004-1.484c3.752,0,5.74,2.716,5.74,7.42c0,5.264-2.744,8.316-8.12,8.316c-3.08,0-5.824-0.616-5.824-0.616l0-18.396l-2.1-0.56l0-2.24z M63.94456,106.02l0,7.532s0.644,0.224,2.072,0.224c2.436,0,3.332-1.848,3.332-4.676c0-2.8-0.784-4.34-2.744-4.34c-1.68,0-2.66,1.26-2.66,1.26z M77.17484,104.06l0-2.24l6.44-0.14l0,9.66c0,1.54,0.448,2.24,1.708,2.24c1.82,0,3.164-1.512,3.164-1.512l0-7.308l-2.24-0.7l0-2.24l6.44-0.14l0,12.18l2.24,0.56l0,2.184l-5.908,0.196l-0.28-1.96s-2.24,2.24-4.9,2.24c-2.8,0-4.424-1.876-4.424-5.012l0-7.308z M111.37712,119.04l0,2.8l-14,0l0-2.8l14,0z M127.8834,103.36l-0.644-2.688s-1.316-0.448-3.136-0.448c-2.94,0-4.62,2.184-4.62,6.86c0,4.536,1.82,6.44,4.76,6.44c2.8,0,5.32-1.96,5.32-1.96l1.54,2.52s-2.94,3.052-7.336,3.052c-5.684,0-8.96-3.416-8.96-9.912c0-6.58,3.696-10.5,9.436-10.5c3.388,0,6.524,1.316,6.524,1.316l-0.14,5.32l-2.744,0z M142.42968,101.4c4.536,0,7.056,2.744,7.056,7.56c0,5.04-2.94,8.12-7.476,8.12c-4.564,0-7.14-2.38-7.14-7.7c0-5.04,2.996-7.98,7.56-7.98z M142.28968,104.76c-2.044,0-3.08,1.12-3.08,4.48c0,3.08,0.896,4.48,2.94,4.48c2.016,0,2.996-1.26,2.996-4.62c0-2.856-0.84-4.34-2.856-4.34z M163.75196,116.8l-0.252-1.484c-0.392,0.392-1.82,1.764-4.228,1.764c-3.92,0-5.74-2.856-5.74-7.476c0-5.264,2.52-8.204,7.644-8.204c0.672,0,1.484,0.14,2.1,0.28l0-3.556l-2.24-0.56l0-2.24l6.44-0.224l0,18.704l2.24,0.56l0,2.24z M163.27596,112.124l0-6.944c-0.532-0.252-1.372-0.42-2.184-0.42c-2.38,0-3.22,1.82-3.22,4.62c0,2.828,0.784,4.34,2.688,4.34c1.792,0,2.716-1.596,2.716-1.596z M186.86624,110.164l-9.296,0c0.168,2.24,1.456,3.556,3.388,3.556c2.324,0,4.704-1.316,4.704-1.316l1.204,2.324s-2.8,2.352-6.384,2.352c-4.816,0-7.28-2.8-7.28-7.56c0-4.9,2.772-8.12,7.476-8.12c4.172,0,6.356,2.576,6.356,6.58c0,1.064-0.168,2.1-0.168,2.184z M177.62624,107.56l5.068,0c0-1.596-0.672-2.8-2.296-2.8c-1.568,0-2.548,1.148-2.772,2.8z M196.82052,101.68l0.252,1.932s2.016-2.212,3.892-2.212c1.54,0,2.604,0.504,2.604,0.504l-0.224,5.376l-2.52,0l-0.42-2.38c-1.624,0-3.024,1.568-3.024,1.568l0,7.392l2.8,0.7l0,2.24l-9.24,0l0-2.24l2.24-0.7l0-9.1l-2.24-0.7l0-2.24z M208.7068,109.632l-0.504-14.252l4.368,0l-0.504,14.112z M208.0348,114.616c0-1.596,1.148-2.52,2.408-2.52c1.54,0,2.352,0.924,2.352,2.52c0,1.624-1.176,2.548-2.436,2.548c-1.54,0-2.324-0.924-2.324-2.548z"/><path fill="opacity" d=""/></svg>
