<?xml version="1.0" encoding="utf-8"?>
<!-- Generator: Adobe Illustrator 23.0.2, SVG Export Plug-In . SVG Version: 6.00 Build 0)  -->
<svg version="1.1" id="Layer_1" xmlns="http://www.w3.org/2000/svg" xmlns:xlink="http://www.w3.org/1999/xlink" x="0px" y="0px"
	 viewBox="0 0 157.7 157.6" style="enable-background:new 0 0 157.7 157.6;" xml:space="preserve">
<style type="text/css">
	.st0{fill-rule:evenodd;clip-rule:evenodd;fill:#FFFFFF;}
	.st1{fill-rule:evenodd;clip-rule:evenodd;fill:#1B2E6A;}
	.st2{clip-path:url(#SVGID_2_);fill:url(#SVGID_3_);}
</style>
<rect class="st0" width="157.7" height="157.6"/>
<rect x="4.5" y="4.5" class="st1" width="148.8" height="148.6"/>
<g>
	<g>
		<defs>
			<rect id="SVGID_1_" x="4.5" y="13.3" width="139.8" height="139.8"/>
		</defs>
		<clipPath id="SVGID_2_">
			<use xlink:href="#SVGID_1_"  style="overflow:visible;"/>
		</clipPath>
		
			<radialGradient id="SVGID_3_" cx="-166.3186" cy="-55.5286" r="1" gradientTransform="matrix(178.5324 0 0 178.5324 29825.3398 9941.8838)" gradientUnits="userSpaceOnUse">
			<stop  offset="0" style="stop-color:#49BED5"/>
			<stop  offset="0.3008" style="stop-color:#49BED5"/>
			<stop  offset="0.5898" style="stop-color:#1B2E69"/>
			<stop  offset="1" style="stop-color:#1B2E69"/>
		</radialGradient>
		<rect x="4.5" y="13.3" class="st2" width="139.8" height="139.8"/>
	</g>
</g>
<g>
	<path class="st0" d="M92.3,19.1c-2.6-0.6-5.3-1-8-1.3l-2.7,29.2c1.4,0.1,2.8,0.3,4.1,0.7L92.3,19.1z M68.3,48.7L58.6,21
		c-3.2,1.1-6.2,2.5-9.2,4.1l14.1,25.7C65,50,66.6,49.3,68.3,48.7 M60,53.1L42.6,29.5c-3.3,2.4-6.3,5.1-9,8.1l21.7,19.8
		C56.7,55.8,58.3,54.4,60,53.1 M93.7,50.6l13.7-26c-2.4-1.3-4.8-2.4-7.4-3.3L89.9,48.9C91.2,49.4,92.5,50,93.7,50.6 M100.2,55.1
		l19.6-21.9c-1.7-1.6-3.6-3-5.5-4.4l-17,24C98.3,53.5,99.3,54.3,100.2,55.1 M108.7,67.6l27.5-10.4c-0.7-1.9-1.5-3.7-2.4-5.5
		l-26.3,13.1C107.9,65.6,108.3,66.6,108.7,67.6 M52.7,60.6L28.6,43.8c-2.3,3.3-4.3,6.8-5.9,10.5l26.9,11.7
		C50.4,64.1,51.5,62.3,52.7,60.6 M105.3,61l24.4-16.4c-1.3-2-2.7-3.8-4.3-5.6l-22.3,19.1C103.9,59.1,104.6,60,105.3,61 M110.5,74.7
		l29.1-3.9c-0.3-2-0.6-4-1.1-6l-28.6,6.7C110.1,72.6,110.3,73.6,110.5,74.7 M79.1,110.8l0.2,29.3c6.7-0.1,13.4-1.2,19.8-3.4
		L89.4,109C86.2,110.1,82.7,110.8,79.1,110.8 M66.4,18.9l6,28.7c1.7-0.3,3.4-0.6,5.2-0.6l-1.2-29.3C73,17.8,69.6,18.2,66.4,18.9
		 M48.2,70L20,61.9c-1.2,4.2-2,8.5-2.2,12.9L47,76.8C47.1,74.4,47.5,72.2,48.2,70 M78.9,78.9l7.4,4.3h24.3c-0.6,4.2-2,8.2-4,11.8
		l25.4,14.7c5.4-9.3,8.3-20,8.3-30.8H78.9z M93.3,107.4l13.2,26.2c8.1-4.1,15.2-10,20.8-17.2l-23.2-17.9
		C101.2,102.1,97.5,105.2,93.3,107.4 M54.8,135.2c5.3,2.2,10.8,3.7,16.5,4.4l3.6-29.1c-3-0.4-5.9-1.2-8.6-2.3L54.8,135.2z M47,80.9
		l-29.2,1.9c0.3,4.4,1,8.7,2.2,12.9l28.1-8.1C47.5,85.5,47.1,83.3,47,80.9 M49.6,91.6l-26.8,11.7c2,4.6,4.6,9,7.7,13l23.2-17.9
		C52,96.3,50.6,94.1,49.6,91.6 M56.4,101.5l-20.6,20.8c3.6,3.6,7.6,6.7,11.9,9.2l14.9-25.2C60.3,105,58.2,103.4,56.4,101.5"/>
</g>
</svg>
