<svg xmlns="http://www.w3.org/2000/svg" viewBox="9179 6524 512 512">
  <defs>
    <style>
      .cls-1 {
        fill: #002060;
      }
    </style>
  </defs>
  <g id="Icono_vimenca" class="spin" data-name="Icono vimenca" transform="translate(9166 6414.3)">
    <path id="Path_5179" data-name="Path 5179" class="cls-1" d="M195.8,109.7l66.744,162.63h51.727L380.138,109.7H328.411l-40.4,104.624L249.108,109.7Z" transform="translate(-22.262)"/>
    <path id="Path_5180" data-name="Path 5180" class="cls-1" d="M385.138,665.03,318.393,502.4H266.666L200.8,665.03h51.727l40.4-104.624,38.9,104.624Z" transform="translate(-22.871 -43.33)"/>
    <path id="Path_5181" data-name="Path 5181" class="cls-1" d="M573.738,292.5,413.2,360.114v52.4L573.738,479.24V426.75L470.46,385.825,573.738,346.5Z" transform="translate(-48.738 -20.17)"/>
    <path id="Path_5182" data-name="Path 5182" class="cls-1" d="M13,481.74l160.538-67.614v-52.4L13,295v52.4l103.278,40.924L13,427.737Z" transform="translate(0 -20.446)"/>
    <path id="Path_5183" data-name="Path 5183" class="cls-1" d="M16.9,255.36l160.977,66.547,36.446-37.188L146.788,122.8l-36.446,37.188,44.789,102.756L54.488,217.015Z" transform="translate(-0.475 -1.445)"/>
    <path id="Path_5184" data-name="Path 5184" class="cls-1" d="M428.909,115.1,358.3,276.04l35.656,38.077L555.723,250.6l-35.568-37.989L417.4,254.866l48.214-100.532Z" transform="translate(-42.052 -0.596)"/>
    <path id="Path_5185" data-name="Path 5185" class="cls-1" d="M557.323,515.647,396.346,449.1,359.9,486.288l67.535,161.918,36.446-37.188L419.092,508.262l100.644,45.729Z" transform="translate(-42.247 -37.449)"/>
    <path id="Path_5186" data-name="Path 5186" class="cls-1" d="M152.044,655.073,221.16,493.422,185.153,455.7,24,520.734l35.919,37.722,102.4-43.238L114.983,616.195Z" transform="translate(-1.34 -38.177)"/>
  </g>
</svg>