<svg xmlns="http://www.w3.org/2000/svg" xmlns:xlink="http://www.w3.org/1999/xlink" width="500" zoomAndPan="magnify" viewBox="0 0 375 374.999991" height="500" preserveAspectRatio="xMidYMid meet" version="1.0"><defs><g/></defs><path stroke-linecap="butt" transform="matrix(0.751238, 0, 0, 0.75, 84.965646, 227.565131)" fill="none" stroke-linejoin="miter" d="M -0.00106806 6.0017 L 274.55622 6.0017 " stroke="#0d1950" stroke-width="12" stroke-opacity="1" stroke-miterlimit="4"/><path stroke-linecap="butt" transform="matrix(0.748843, 0, 0, 0.75, 84.965646, 104.672477)" fill="none" stroke-linejoin="miter" d="M -0.00107148 5.999198 L 273.42602 5.999198 " stroke="#0d1950" stroke-width="12" stroke-opacity="1" stroke-miterlimit="4"/><path stroke-linecap="butt" transform="matrix(-0.00361195, -0.751143, 0.749991, -0.00360641, 85.547891, 227.560648)" fill="none" stroke-linejoin="miter" d="M -0.000064003 5.998715 L 162.762207 6.001317 " stroke="#0d1950" stroke-width="12" stroke-opacity="1" stroke-miterlimit="4"/><g fill="#ffffff" fill-opacity="1"><g transform="translate(154.814409, 170.309967)"><g><path d="M 14.042969 0 L 21.089844 0 L 21.089844 -14.652344 L 35.132812 -37.578125 L 26.914062 -37.578125 L 17.472656 -21.140625 L 8.109375 -37.578125 L -0.0546875 -37.578125 L 14.042969 -14.652344 Z M 14.042969 0 "/></g></g></g><g fill="#ffffff" fill-opacity="1"><g transform="translate(189.88708, 170.309967)"><g><path d="M 13.511719 0.53125 C 22.710938 0.53125 26.195312 -5.558594 26.195312 -13.5625 L 26.195312 -37.578125 L 5.292969 -37.578125 L 5.292969 -31.382812 L 19.441406 -31.382812 L 19.441406 -13.457031 C 19.441406 -8.5625 18.402344 -5.71875 13.511719 -5.71875 C 9.46875 -5.71875 7.738281 -8.777344 7.472656 -12.472656 L 0.824219 -11.703125 C 1.304688 -5.054688 5.824219 0.53125 13.511719 0.53125 Z M 13.511719 0.53125 "/></g></g></g><g fill="#f5e6df" fill-opacity="1"><g transform="translate(124.822034, 195.374987)"><g><path d="M 9.199219 -11.996094 L 2.480469 -11.996094 L 2.480469 0 L 3.519531 0 L 3.519531 -4.339844 L 9.199219 -4.339844 C 12.976562 -4.339844 14.136719 -5.5 14.136719 -8.019531 L 14.136719 -8.597656 C 14.136719 -10.796875 12.957031 -11.996094 9.199219 -11.996094 Z M 13.058594 -8.019531 C 13.058594 -6.039062 11.976562 -5.339844 9.199219 -5.339844 L 3.519531 -5.339844 L 3.519531 -10.996094 L 9.199219 -10.996094 C 11.878906 -10.996094 13.058594 -10.335938 13.058594 -8.597656 Z M 13.058594 -8.019531 "/></g></g></g><g fill="#f5e6df" fill-opacity="1"><g transform="translate(140.555983, 195.374987)"><g><path d="M 14.578125 -1.199219 L 14.578125 -3.121094 C 14.578125 -4.359375 14.078125 -5.199219 12.9375 -5.660156 C 14.078125 -6.160156 14.578125 -7.058594 14.578125 -8.4375 L 14.578125 -8.917969 C 14.578125 -10.878906 13.296875 -11.996094 10.238281 -11.996094 L 2.480469 -11.996094 L 2.480469 0 L 3.558594 0 L 3.558594 -5.140625 L 10.238281 -5.140625 C 12.597656 -5.140625 13.457031 -4.539062 13.457031 -3.121094 L 13.457031 -1.121094 C 13.457031 -0.761719 13.476562 -0.359375 13.535156 0 L 14.675781 0 C 14.617188 -0.359375 14.578125 -0.761719 14.578125 -1.199219 Z M 3.558594 -6.179688 L 3.558594 -10.996094 L 10.238281 -10.996094 C 12.597656 -10.996094 13.496094 -10.335938 13.496094 -8.917969 L 13.496094 -8.4375 C 13.496094 -6.796875 12.597656 -6.179688 10.238281 -6.179688 Z M 3.558594 -6.179688 "/></g></g></g><g fill="#f5e6df" fill-opacity="1"><g transform="translate(157.429489, 195.374987)"><g><path d="M 9.21875 0.199219 C 14.496094 0.199219 16.835938 -2.039062 16.835938 -5.636719 L 16.835938 -6.519531 C 16.835938 -10.117188 14.496094 -12.195312 9.21875 -12.195312 C 3.9375 -12.195312 1.597656 -10.039062 1.597656 -6.4375 L 1.597656 -5.558594 C 1.597656 -1.960938 3.9375 0.199219 9.21875 0.199219 Z M 9.21875 -0.800781 C 4.71875 -0.800781 2.679688 -2.4375 2.679688 -5.558594 L 2.679688 -6.4375 C 2.679688 -9.558594 4.71875 -11.195312 9.21875 -11.195312 C 13.714844 -11.195312 15.757812 -9.558594 15.757812 -6.4375 L 15.757812 -5.558594 C 15.757812 -2.4375 13.714844 -0.800781 9.21875 -0.800781 Z M 9.21875 -0.800781 "/></g></g></g><g fill="#f5e6df" fill-opacity="1"><g transform="translate(176.262211, 195.374987)"><g><path d="M 16.074219 -11.996094 L 1.878906 -11.996094 L 1.878906 -11.078125 L 15.035156 -11.078125 L 15.035156 -5.558594 C 15.035156 -2.4375 13.035156 -0.800781 8.738281 -0.800781 C 4.640625 -0.800781 2.640625 -2.039062 2.640625 -4.757812 L 2.640625 -5.4375 L 1.597656 -5.4375 L 1.597656 -4.757812 C 1.597656 -1.558594 3.859375 0.199219 8.738281 0.199219 C 13.816406 0.199219 16.074219 -2.039062 16.074219 -5.636719 Z M 16.074219 -11.996094 "/></g></g></g><g fill="#f5e6df" fill-opacity="1"><g transform="translate(194.475178, 195.374987)"><g><path d="M 14.117188 -11.078125 L 14.117188 -11.996094 L 2.480469 -11.996094 L 2.480469 0 L 14.117188 0 L 14.117188 -0.917969 L 3.519531 -0.917969 L 3.519531 -5.378906 L 13.375 -5.378906 L 13.375 -6.296875 L 3.519531 -6.296875 L 3.519531 -11.078125 Z M 14.117188 -11.078125 "/></g></g></g><g fill="#f5e6df" fill-opacity="1"><g transform="translate(210.209127, 195.374987)"><g><path d="M 9.21875 0.199219 C 13.9375 0.199219 16.414062 -1.558594 16.753906 -4.5 L 15.636719 -4.5 C 15.296875 -2.078125 13.15625 -0.800781 9.21875 -0.800781 C 4.71875 -0.800781 2.679688 -2.4375 2.679688 -5.558594 L 2.679688 -6.4375 C 2.679688 -9.558594 4.71875 -11.195312 9.21875 -11.195312 C 13.078125 -11.195312 15.476562 -9.976562 15.65625 -7.679688 L 16.777344 -7.679688 C 16.597656 -10.515625 13.855469 -12.195312 9.21875 -12.195312 C 3.9375 -12.195312 1.597656 -10.039062 1.597656 -6.4375 L 1.597656 -5.558594 C 1.597656 -1.960938 3.9375 0.199219 9.21875 0.199219 Z M 9.21875 0.199219 "/></g></g></g><g fill="#f5e6df" fill-opacity="1"><g transform="translate(229.001875, 195.374987)"><g><path d="M 12.65625 -11.996094 L -0.0585938 -11.996094 L -0.0585938 -11.039062 L 5.777344 -11.039062 L 5.777344 0 L 6.816406 0 L 6.816406 -11.039062 L 12.65625 -11.039062 Z M 12.65625 -11.996094 "/></g></g></g><g fill="#f5e6df" fill-opacity="1"><g transform="translate(241.976911, 195.374987)"><g><path d="M 14.015625 -8.039062 L 15.054688 -8.039062 C 15.054688 -10.996094 12.835938 -12.175781 8.539062 -12.175781 C 3.4375 -12.175781 1.621094 -10.898438 1.621094 -9.238281 L 1.621094 -8.796875 C 1.621094 -6.757812 3.300781 -6.117188 8.097656 -5.617188 C 12.816406 -5.140625 13.898438 -4.578125 13.898438 -3.277344 L 13.898438 -2.917969 C 13.898438 -1.558594 11.835938 -0.800781 8.117188 -0.800781 C 4.398438 -0.800781 2.640625 -1.660156 2.640625 -4.160156 L 1.597656 -4.160156 C 1.597656 -1.199219 3.417969 0.199219 8.117188 0.199219 C 13.136719 0.199219 14.9375 -1.140625 14.9375 -2.800781 L 14.9375 -3.238281 C 14.9375 -5.4375 13.257812 -6.058594 8.21875 -6.578125 C 3.738281 -7.039062 2.660156 -7.617188 2.660156 -8.757812 L 2.660156 -9.117188 C 2.660156 -10.457031 4.679688 -11.175781 8.539062 -11.175781 C 12.21875 -11.175781 14.015625 -10.335938 14.015625 -8.039062 Z M 14.015625 -8.039062 "/></g></g></g><path stroke-linecap="butt" transform="matrix(-0.00521251, -0.75099, 0.749982, -0.00520551, 281.877526, 227.591997)" fill="none" stroke-linejoin="miter" d="M -0.00232529 6.001969 L 162.793281 5.997984 " stroke="#0d1950" stroke-width="12" stroke-opacity="1" stroke-miterlimit="4"/></svg>