<svg width="485" height="655" viewBox="0 0 485 655" fill="none" xmlns="http://www.w3.org/2000/svg">
<path fill-rule="evenodd" clip-rule="evenodd" d="M99.3487 576.892C101.6 580.315 106.028 579.788 107.929 577.137C129.578 582.185 151.771 580.196 173.72 578.958C235.572 576.439 297.772 584.334 359.374 576.075C365.908 574.768 373.514 575.393 378.861 570.857C387.413 560.828 385.571 545.6 384.209 533.385C373.289 464.525 357.765 395.033 350.02 325.73C349.588 319.129 352.306 310.927 354.743 304.721C355.345 303.567 359.15 302.435 361.124 301.104C367.182 296.751 366.2 288.952 360.948 284.376C343.942 272.38 320.27 276.572 302.23 280.997C298.773 268.003 294.887 259.457 288.305 258.61C275.777 256.999 245.386 252.077 236.025 258.61C231.546 261.736 228.672 272.75 225.448 278.115C201.938 277.697 154.222 246.219 144.413 281.666C136.443 282.217 128.549 289.18 130.073 297.537C119.737 306.678 127.889 320.384 127.746 331.762C126.387 355.902 113.335 377.491 107.905 400.81C95.4927 446.038 81.4439 528.308 96.8388 572.456C96.5075 572.283 95.7838 572.543 96.2526 572.91C97.9958 573.402 98.2225 575.6 99.3487 576.892Z" fill="white"/>
<path fill-rule="evenodd" clip-rule="evenodd" d="M369.643 565.39C366.756 542.192 364.748 514.188 364.725 490.796C364.723 488.593 368.138 488.597 368.14 490.796C368.163 514.188 370.171 542.192 373.059 565.39C373.33 567.571 369.911 567.544 369.643 565.39ZM348.254 421.553C343.792 424.284 337.933 422.389 333.518 420.581C331.508 419.758 332.393 416.453 334.426 417.285C337.786 418.662 342.698 420.688 346.244 418.768C349.784 416.852 349.943 411.583 349.97 408.105C349.987 405.903 353.402 405.905 353.386 408.105C353.35 412.836 352.717 418.82 348.254 421.553ZM339.995 527.711C335.494 525.402 331.654 522.245 328.563 518.238C327.219 516.496 330.187 514.796 331.512 516.513C334.232 520.04 337.777 522.737 341.719 524.76C343.678 525.765 341.948 528.713 339.995 527.711ZM318.36 408.417C310.637 439.39 305.454 470.918 302.913 502.74C302.397 509.201 302.034 515.652 301.829 522.108C301.624 523.792 301.428 525.48 301.244 527.167C300.548 533.55 300.015 540.036 300.062 546.463C300.083 549.347 300.173 552.218 300.369 555.093C300.027 554.132 299.711 553.166 299.404 552.205C298.776 550.235 298.362 548.193 297.722 546.236C297.192 544.617 296.509 543.066 295.873 541.498V541.493C296.065 535.072 295.63 528.59 295.408 522.198C295.122 513.918 294.768 505.646 294.584 497.361C294.217 480.792 294.4 464.209 294.998 447.649C296.198 414.279 299.229 381.068 302.286 347.835C303.135 338.593 304.049 329.356 304.681 320.096C305.317 310.739 305.573 301.365 305.646 291.983C305.65 291.307 304.625 291.128 304.438 291.782C304.271 289.556 303.977 287.334 303.486 285.185C310.85 289.885 318.616 293.948 326.228 298.221C330.237 300.472 334.229 302.762 338.362 304.779C340.633 305.89 342.926 306.911 345.266 307.877C347.691 308.877 350.009 310.252 352.677 309.556C352.908 309.496 353.125 309.411 353.335 309.3C353.032 309.876 352.728 310.449 352.438 311.03C351.431 313.034 350.47 315.046 349.539 317.076C349.292 317.26 349.074 317.512 348.903 317.841C348.451 318.725 348.011 319.618 347.584 320.523C347.498 320.443 347.413 320.362 347.328 320.28C346.969 319.943 346.474 320.451 346.79 320.819C346.935 320.985 347.076 321.148 347.217 321.314C344.433 327.309 342.17 333.611 339.839 339.764C336.974 347.326 334.259 354.945 331.702 362.614C326.66 377.701 322.211 392.984 318.36 408.417ZM207.941 520.82C193.707 528.449 180.405 537.566 167.612 547.4C165.868 548.74 164.168 545.769 165.888 544.448C178.681 534.615 191.983 525.497 206.218 517.868C208.157 516.829 209.88 519.781 207.941 520.82ZM159.864 431.471C159.124 431.416 158.405 430.986 158.217 430.217C157.064 425.492 156.161 420.345 157.234 415.526C157.712 413.376 161.004 414.291 160.527 416.434C159.681 420.234 160.353 424.342 161.232 428.131C173.646 428.675 185.895 424.217 197.773 421.223C199.909 420.685 200.811 423.982 198.681 424.519C186.081 427.694 173.048 432.448 159.864 431.471ZM407.018 557.499C407.03 557.469 407.043 557.435 407.052 557.405C407.782 555.192 407.799 552.62 407.88 550.3C408.021 546.172 407.872 542.036 407.5 537.922C406.715 529.261 405.024 520.741 403.004 512.294C399.004 495.562 393.351 479.283 390.282 462.325C384.258 429.037 385.688 394.377 373.866 362.268C368.952 348.92 361.933 336.089 352.395 325.484C353.091 323.365 353.77 321.242 354.432 319.11C355.589 315.401 356.771 311.573 357.484 307.753C357.502 307.65 357.523 307.544 357.536 307.437C361.596 305.685 365.289 302.382 365.921 297.99C366.194 296.093 365.878 293.991 365.058 292.158C366.732 290.611 367.808 288.603 367.552 285.911C367.073 280.844 361.16 279.54 357.045 278.549C352.366 277.425 347.511 277.114 342.725 277.643C340.309 277.908 337.918 278.353 335.583 279.019C333.555 279.596 331.347 280.19 329.721 281.583C329.529 281.745 329.687 282.061 329.917 282.061C333.209 282.049 336.488 280.839 339.814 280.681C343.297 280.519 346.773 280.805 350.188 281.523C353.527 282.224 356.857 283.249 359.892 284.834C360.746 285.283 361.997 285.586 360.994 286.492C360.26 287.154 358.817 287.21 357.873 287.308C355.785 287.526 353.984 288.748 353.719 290.978C353.484 292.948 354.658 295.178 356.75 295.623C356.865 295.649 356.972 295.678 357.066 295.717C357.122 295.824 357.207 295.913 357.198 295.768C357.198 295.768 357.203 295.764 357.203 295.768C357.254 296.08 357.271 296.203 357.271 296.225C357.258 296.2 357.237 296.093 357.22 296.007C357.233 296.084 357.258 296.208 357.292 296.392C357.245 296.191 357.284 296.683 357.245 296.759C356.135 298.81 352.852 299.387 350.94 300.271C350.568 300.442 350.248 300.643 349.975 300.869C349.522 300.712 349.061 300.553 348.596 300.378C346.303 299.519 344.015 298.686 341.692 297.913C337.209 296.413 332.671 295.076 328.188 293.572C319.701 290.726 311.495 287.133 303.165 283.877C302.901 282.895 302.593 281.933 302.23 280.997C302.158 280.801 301.808 280.737 301.769 280.997C301.641 281.826 301.539 282.66 301.453 283.497C301.419 283.574 301.411 283.659 301.428 283.741C300.945 288.611 301.073 293.598 300.826 298.464C300.518 304.531 299.66 310.556 299.417 316.627V316.738C298.52 321.921 297.709 327.121 296.975 332.338C296.151 332.081 295.207 332.133 294.242 332.65C287.42 336.294 279.752 338.324 272.037 338.777C268.152 339.003 264.306 338.875 260.442 338.426C257.902 338.136 255.4 337.606 252.894 337.102C254.213 331.569 255.63 326.061 257.231 320.61C258.55 316.127 260.019 311.667 261.834 307.356C263.665 303.002 265.945 298.844 268.067 294.623C269.045 292.67 267.892 289.684 265.352 289.889C264.6 289.949 263.849 289.996 263.093 290.03C255.741 290.381 248.095 289.56 240.837 288.829C232.576 287.992 224.203 287.124 216.015 285.761C215.409 285.663 215.161 286.488 215.759 286.689C219.644 287.996 223.482 289.474 227.465 290.453C231.564 291.465 235.688 292.388 239.846 293.11C243.83 293.799 247.83 294.375 251.843 294.862C254.46 295.183 257.107 295.345 259.742 295.559C256.194 301.233 253.747 307.633 251.617 313.935C248.88 322.028 246.869 330.355 244.901 338.666C240.692 356.478 237.221 374.471 234.505 392.574C232.559 405.554 230.983 418.586 229.801 431.652C229.45 427.682 229.024 423.726 228.541 419.774C226.927 406.652 224.571 393.616 221.42 380.777C221.702 380.281 221.834 379.688 221.74 379.111C221.172 375.582 219.678 372.509 218.367 369.237C217.065 364.665 215.66 360.123 214.149 355.615C212.433 349.476 210.507 343.43 208.044 337.525C206.161 333.026 204.014 328.642 201.623 324.391C198.767 318.447 195.629 312.633 192.183 307.074C192.004 306.557 191.714 306.074 191.299 305.668C190.672 304.677 190.036 303.698 189.387 302.728C188.964 302.096 187.752 302.48 188.072 303.284C188.221 303.66 188.371 304.036 188.524 304.408C174.491 300.895 160.731 306.266 147.363 310.231C143.991 311.235 140.584 312.141 137.125 312.795C134.406 313.307 131.238 313.931 128.527 313.367C126.712 312.991 125.91 312.167 126.794 310.227C127.707 308.219 130.201 306.898 132.365 306.01C133.181 305.834 133.983 305.523 134.756 305.053C136.558 303.959 137.347 301.677 136.498 299.733C135.725 297.977 133.471 296.465 131.477 297.268C131.191 297.383 130.909 297.494 130.627 297.605C130.598 297.563 130.563 297.503 130.534 297.417C130.247 296.635 130.124 297.572 130.247 296.452C130.452 294.623 132.386 292.961 133.71 291.914C137.002 289.304 141.758 287.372 146.006 288.359C146.326 288.432 146.646 288.522 146.962 288.633C151.338 290.15 153.469 283.843 149.972 281.493C149.758 281.352 149.49 281.173 149.195 280.963C147.739 279.951 145.609 278.246 146.189 276.708C146.907 274.798 151.137 273.7 152.738 273.05C158.528 270.7 164.782 269.367 171.024 269.094C177.304 268.82 183.666 269.513 189.724 271.208C192.695 272.038 195.748 273.298 198.557 274.572C201.081 275.712 206.571 277.22 206.921 280.416C206.998 281.122 208.001 281.361 208.219 280.592C209.939 274.456 203.262 270.495 198.856 267.962C195.966 266.295 192.687 265.257 189.515 264.236C186.475 263.253 183.371 262.531 180.203 262.095C173.402 261.164 166.52 261.283 159.774 262.591C153.631 263.783 146.796 265.817 141.83 269.773C138.782 272.2 137.403 276.063 138.628 279.831C138.671 279.955 138.714 280.083 138.756 280.207C133.27 281.19 128.079 284.334 124.608 288.718C121.756 292.32 120.261 297.332 122.815 301.524C122.708 301.6 122.601 301.681 122.499 301.767C120.065 303.715 118.255 306.544 117.717 309.637C116.662 315.739 120.347 320.007 125.5 321.639C124.223 322.887 122.998 324.211 121.798 325.536C119.113 328.505 116.547 331.739 114.284 335.038C109.699 341.721 105.78 348.997 102.351 356.329C95.3027 371.386 90.8583 387.592 88.5016 404.025C87.3147 412.305 86.5206 420.628 86.2175 428.986C85.8674 438.514 86.2218 448.046 86.0382 457.578C85.8589 466.739 84.847 475.677 82.802 484.608C80.8424 493.148 78.2295 501.518 75.8643 509.948C73.1959 519.442 70.2586 528.893 68.8497 538.682C68.1367 543.664 67.6244 548.659 68.0215 553.696C68.4228 558.828 70.2842 563.216 72.0005 567.988C72.436 569.206 73.7638 569.697 74.8268 569.437C75.0659 571.723 75.9283 573.953 77.2134 575.884C79.9415 579.977 84.1426 582.588 88.9542 583.537C94.3763 584.6 99.9649 584.348 105.455 584.152C111.411 583.938 117.371 583.746 123.327 583.498C129.562 583.24 135.797 582.976 142.033 582.709C141.826 576.314 141.581 569.92 141.303 563.527C139.799 528.968 137.432 494.389 137.369 459.784C137.248 459.713 137.13 459.629 137.016 459.519C134.209 456.804 130.763 455.02 127.525 452.895C125.692 451.692 127.405 448.734 129.249 449.944C131.979 451.735 134.823 453.327 137.382 455.335C137.397 451.733 137.428 448.131 137.499 444.528C137.543 442.328 140.958 442.328 140.915 444.528C140.701 455.386 140.772 466.245 141.018 477.101C141.812 512.282 144.31 547.397 145.447 582.563C162.183 581.848 178.92 581.127 195.658 580.515C209.273 580.02 222.888 579.525 236.503 579.029C239.36 578.927 240.965 576.884 241.315 574.213C241.955 569.3 240.751 564.22 238.028 560.088C237.746 559.661 237.413 559.281 237.041 558.956C237.105 556.012 237.225 553.063 237.058 550.12C236.811 545.625 236.439 541.13 236.115 536.64C235.457 527.646 234.949 518.635 234.749 509.619C234.339 491.589 234.638 473.541 235.658 455.536C237.703 419.564 242.464 383.823 250.255 348.638C250.823 346.074 251.395 343.511 251.988 340.952C258.047 344.1 265.416 345.232 272.037 345.275C280.337 345.327 288.453 343.416 295.95 339.944C295.899 340.332 295.848 340.717 295.801 341.105C293.709 357.769 291.945 374.466 290.408 391.185C287.343 424.516 285.465 457.984 285.725 491.464C285.798 500.741 286.152 509.987 286.592 519.25C287.04 528.671 287.727 538.626 290.349 547.714C290.639 548.718 291.284 549.295 292.027 549.505C292.065 550.829 292.15 552.158 292.244 553.465C292.547 557.717 293.414 566.548 295.267 570.402C297.073 574.162 300.083 577.145 303.921 578.786C308.797 580.866 314.069 580.268 319.218 579.935C341.607 578.473 363.978 576.517 386.354 574.799C389.471 574.56 392.587 574.325 395.7 574.081C398.47 573.867 401.335 573.679 403.794 572.24C406.591 570.603 408.772 562.566 407.807 559.242C407.632 558.635 407.368 558.037 407.018 557.499Z" fill="#000419"/>
<path fill-rule="evenodd" clip-rule="evenodd" d="M337.528 197.907C337.358 188.335 337.17 178.572 335.748 169.093C334.358 159.827 330.534 151.451 323.963 144.722C310.005 130.428 289.773 126.937 270.939 123.738L238.74 118.268C228.917 116.599 218.437 113.932 208.512 116.298C203.621 117.464 199.468 120.173 195.672 123.378C192.013 126.467 188.08 129.784 185.6 133.941C183.117 138.103 182.263 142.968 181.455 147.675C180.545 152.982 179.837 158.331 179.335 163.692C178.328 174.433 178.19 185.256 178.921 196.019C179.274 201.24 179.838 206.446 180.557 211.629C180.913 214.199 181.316 216.762 181.771 219.317C181.905 220.07 182.007 220.904 182.145 221.747C181.129 224.638 180.552 227.632 180.598 230.613C180.735 239.394 188.142 244.922 195.608 247.89C199.937 249.611 204.463 250.781 208.716 252.704C213.191 254.726 216.237 258.004 219.296 261.744C225.131 268.877 231.716 275.288 239.235 280.636C255.176 291.976 275.366 297.34 294.708 293.269C299.349 292.292 304.031 290.775 308.203 288.49C312.607 286.077 315.919 282.581 318.7 278.447C323.863 270.773 327.567 262.131 330.368 253.338C333.226 244.368 335.254 235.381 336.36 226.028C337.463 216.705 337.695 207.287 337.528 197.907Z" fill="white"/>
<path fill-rule="evenodd" clip-rule="evenodd" d="M234.777 84.9252C248.102 83.0909 266.493 89.0526 273.129 101.073C304.81 93.5987 344.768 93.3539 370.88 118.237C398.127 147.753 363.904 186.671 341.211 195.445C342.863 203.481 340.287 254.96 322.059 277.922C307.593 297.378 273.904 306.357 258.316 283.119L258.194 282.927C256.524 280.243 257.962 280.33 259.677 282.326C274.941 295.76 295.696 295.989 311.689 281.812C341.664 255.898 338.573 192.359 324.31 155.601C283.696 151.137 240.21 163.456 212.159 194.053L214.055 205.481C214.379 207.428 214.746 209.373 215.026 211.327C215.205 212.579 215.225 213.824 214.359 214.838C211.497 218.183 206.674 213.156 202.705 211.156C201.534 210.992 200.36 210.928 199.209 211.009C180.143 213.467 183.9 250.481 204.855 243.993C206.615 242.895 208.128 243.23 208.811 244.823C213.806 249.402 217.099 257.567 225.397 265.433C228.325 268.383 230.99 270.851 234.283 273.218C236.218 275.176 242.055 277.172 240.204 280.522C236.705 288.145 216.071 264.199 212.423 257.577C200.992 262.094 188.325 260.56 176.48 259.456C113.989 256.204 122.332 190.281 173.554 148.661C183.196 141.557 193.834 135.762 204.892 131.302C206.401 130.694 205.742 128.213 204.211 128.83C196.894 131.781 189.761 135.294 182.962 139.359L182.951 136.929C182.941 132.835 183.006 128.573 183.716 124.833C184.071 122.241 184.669 119.473 185.588 117.39C186.725 111.006 204.535 89.0902 234.777 84.9252ZM198.375 219.507C199.34 218.589 201.141 219.683 202 219.656C204.197 219.957 206.284 220.885 207.911 222.031C208.986 222.634 209.739 223.199 210.368 223.72L210.385 223.715C210.381 223.715 210.373 223.718 210.368 223.72L210.429 223.761C211.345 224.413 214.699 228.082 212.58 227.095C212.422 226.89 212.26 226.693 212.097 226.499C212.08 226.526 212.056 226.552 212.026 226.577L212.146 226.754C213.947 229.465 210.837 226.608 210.358 225.85C210.336 225.868 210.31 225.88 210.285 225.894L210.908 226.653C210.995 226.76 211.064 226.846 211.121 226.919L211.252 227.046C213.335 229.095 213.4 230.938 210.98 227.909C211.075 228.052 211.152 228.203 211.162 228.338L211.306 228.52C213.205 230.97 211.66 230.1 210.716 229.054L210.637 228.964L210.653 228.988C211.532 230.342 209.789 229.392 209.481 228.668L209.468 228.635C209.133 228.361 208.926 228.054 208.855 227.976L208.842 227.963C207.209 226.288 204.841 224.871 202.83 224.227C202.538 224.172 202.243 224.127 201.945 224.096C200.736 223.826 199.513 223.641 198.277 223.541C198.126 223.523 197.973 223.412 197.859 223.268C195.99 223.205 196.567 222.439 197.342 222.296L197.356 222.294L197.202 222.281C196.003 222.164 195.184 221.733 196.396 221.469L196.55 221.438C196.531 221.409 196.515 221.38 196.498 221.35C195.46 221.236 196.138 220.226 196.714 220.47C196.471 219.677 197.58 220.073 197.718 219.955C197.824 219.838 197.955 219.735 198.03 219.729C198.364 219.493 198.202 219.514 198.375 219.507ZM204.728 206.661L204.485 206.803C204.288 206.918 204.086 206.994 203.882 207.039C204.169 207.162 204.453 207.294 204.733 207.435C204.729 207.262 204.726 207.09 204.726 206.918L204.728 206.661Z" fill="#C15A34"/>
<path fill-rule="evenodd" clip-rule="evenodd" d="M289.287 259.32C286.417 258.148 283.856 256.193 281.984 253.697C281.333 252.829 281.164 251.912 281.301 251.074C281.454 250.131 282.011 249.277 282.771 248.704C283.534 248.129 284.487 247.845 285.409 247.99C286.21 248.116 287.008 248.554 287.639 249.465L287.771 249.647C288.884 251.154 290.334 252.39 291.987 253.187C293.579 253.955 295.361 254.314 297.204 254.105C300.715 253.708 303.135 251.808 305.708 249.228C306.026 248.902 306.345 248.566 306.666 248.224C306.868 247.915 307.149 247.716 307.461 247.612C307.808 247.496 308.199 247.502 308.558 247.628C308.904 247.748 309.214 247.978 309.421 248.282C309.619 248.572 309.73 248.93 309.694 249.342C309.459 252.016 308.062 254.403 306.077 256.277C303.873 258.358 300.951 259.798 298.201 260.303C295.17 260.86 292.083 260.461 289.287 259.32ZM299.63 218.063C302.854 220.024 307.767 224.597 304.298 229.459C300.216 233.746 294.338 228.831 291.442 226.608C288.756 224.885 285.738 229.316 288.23 231.328C309.16 246.835 317.654 218.576 301.261 215.757C299.456 215.446 298.786 217.456 299.63 218.063ZM262.124 200.023C262.48 195.599 269.214 194.594 269.884 198.972C270.483 202.895 269.777 206.498 268.012 210.029C266.325 213.403 262.085 211.829 261.765 208.757C261.335 204.639 261.902 202.776 262.124 200.023ZM313.383 198.064C314.322 196.834 315.677 195.994 317.302 196.469C322.376 197.953 320.88 205.162 319.098 208.671C318.13 210.577 315 211.06 313.585 209.382C311.28 206.646 310.176 201.181 313.107 198.486C313.186 198.347 313.275 198.206 313.383 198.064ZM267.94 180.661L268.742 180.521C271.221 180.092 274.304 179.68 276.059 181.675C276.989 182.732 277.309 184.699 276.059 185.711C273.859 187.493 271.427 186.803 268.791 186.953C266.619 187.078 264.531 187.438 262.439 188.037C257.848 189.349 254.108 191.746 250.187 194.378C249.673 194.724 249.148 194.065 249.393 193.584C251.657 189.147 256.042 185.503 260.436 183.282C262.78 182.096 265.346 181.113 267.94 180.661ZM308.758 178.674L309.371 178.8C316.047 180.196 324.721 182.986 327.883 189.549C328.003 190.477 327.876 190.676 327.772 190.806L327.738 190.849C327.652 190.96 327.584 191.113 327.182 191.239C327.071 191.212 326.958 191.184 326.844 191.154C325.395 190.774 324.249 190.251 323.139 189.707L321.935 189.114C320.539 188.429 319.13 187.769 317.637 187.281C314.452 186.241 311.175 185.509 307.847 185.118C307.126 185.033 306.431 184.789 305.883 184.372C305.363 183.975 304.966 183.427 304.785 182.697C304.55 181.754 304.617 181.039 305.123 180.187C305.504 179.548 306.048 179.105 306.673 178.85C307.311 178.591 308.036 178.53 308.758 178.674Z" fill="black"/>
<path fill-rule="evenodd" clip-rule="evenodd" d="M341.664 226.881C340.249 224.98 337.706 222.485 335.133 222.619C334.804 222.636 334.681 222.993 334.878 223.234C335.72 224.263 336.87 224.994 337.713 226.044C338.711 227.286 339.431 228.785 339.899 230.3C340.58 232.502 340.767 234.994 340.161 237.233C339.092 241.179 335.712 244.072 332.024 245.549C328.374 247.011 323.981 247.51 320.529 245.368C315.433 242.205 311.112 237.646 304.707 237.556C303.209 237.535 302.153 238.222 301.524 239.202C300.892 238.257 299.85 237.588 298.389 237.572C291.21 237.491 285.851 242.437 279.824 245.521C275.752 247.605 270.482 246.958 266.281 245.581C262.317 244.283 258.015 241.675 256.52 237.558C255.695 235.284 255.88 232.629 256.727 230.387C257.284 228.913 258.145 227.489 259.209 226.331C260.313 225.129 261.763 224.374 262.894 223.235C263.125 223.002 262.942 222.64 262.639 222.619C257.838 222.293 253.502 228.03 252.596 232.193C251.703 236.292 253.034 240.38 255.729 243.509C261.207 249.868 271.352 251.965 279.248 250.097C285.639 248.584 291.709 245.101 298.389 245.601C299.854 245.711 300.905 245.1 301.539 244.174C302.175 245.127 303.233 245.75 304.707 245.608C310.934 245.004 316.491 249.417 322.535 250.494C327.347 251.352 332.545 250.195 336.668 247.601C340.978 244.889 344.012 240.539 344.212 235.353C344.326 232.369 343.452 229.282 341.664 226.881Z" fill="black"/>
</svg>
