<svg xmlns="http://www.w3.org/2000/svg" version="1.1" xmlns:xlink="http://www.w3.org/1999/xlink"
     xmlns:svgjs="http://svgjs.dev/svgjs" width="1000" height="625" viewBox="0 0 1000 625">
     <g transform="matrix(1,0,0,1,0,0)"><svg viewBox="0 0 512 320" data-background-color="#ffffff"
               preserveAspectRatio="xMidYMid meet" height="625" width="1000" xmlns="http://www.w3.org/2000/svg"
               xmlns:xlink="http://www.w3.org/1999/xlink">
               <g id="tight-bounds" transform="matrix(1,0,0,1,0,0)"><svg viewBox="0 0 512 320" height="320" width="512">
                         <g><svg></svg></g>
                         <g><svg viewBox="0 0 512 320" height="320" width="512">
                                   <g>
                                        <path d="M96 320l0-320 320 0 0 320zM403.457 307.457l0-294.914-294.914 0 0 294.914z"
                                             fill="#ba3b0a" fill-rule="nonzero" stroke="none" stroke-width="1"
                                             stroke-linecap="butt" stroke-linejoin="miter" stroke-miterlimit="10"
                                             stroke-dasharray="" stroke-dashoffset="0" font-family="none"
                                             font-weight="none" font-size="none" text-anchor="none"
                                             style="mix-blend-mode: normal" data-fill-palette-color="tertiary"></path>
                                   </g>
                                   <g transform="matrix(1,0,0,1,140.8,90.45853658536585)"><svg
                                             viewBox="0 0 230.4 139.0829268292683" height="139.0829268292683"
                                             width="230.4">
                                             <g><svg viewBox="0 0 230.4 139.0829268292683" height="139.0829268292683"
                                                       width="230.4">
                                                       <g><svg viewBox="0 0 230.4 139.0829268292683"
                                                                 height="139.0829268292683" width="230.4">
                                                                 <g><svg viewBox="0 0 230.4 139.0829268292683"
                                                                           height="139.0829268292683" width="230.4">
                                                                           <g><svg viewBox="0 0 230.4 139.0829268292683"
                                                                                     height="139.0829268292683"
                                                                                     width="230.4">
                                                                                     <g><svg viewBox="0 0 230.4 139.0829268292683"
                                                                                               height="139.0829268292683"
                                                                                               width="230.4">
                                                                                               <g
                                                                                                    transform="matrix(1,0,0,1,0,0)">
                                                                                                    <svg width="230.4"
                                                                                                         viewBox="0.6 -38.9 65.60000000000001 39.6"
                                                                                                         height="139.0829268292683"
                                                                                                         data-palette-color="#ba3b0a">
                                                                                                         <path d="M22.85-30.7L22.85-38.9 38.2-38.9 38.2-30.7 36.2-30.7 26.55-13.4 26.55-8.2 29.05-8.2 29.05 0 10.05 0 10.05-8.2 12.55-8.2 12.55-13.4 2.6-30.7 0.6-30.7 0.6-38.9 19.95-38.9 19.95-30.7 18.2-30.7 21.15-22.95 21.65-22.95 24.6-30.7 22.85-30.7ZM47.45 0.7Q43.6 0.7 40.15-0.18 36.7-1.05 34.4-2.6L34.4-2.6 34.4-11.4 44.4-11.4 44.4-10.9Q44.4-8.2 47-8.2L47-8.2Q48.35-8.2 49.02-8.93 49.7-9.65 49.7-11.2L49.7-11.2 49.7-30.7 45.2-30.7 45.2-38.9 66.2-38.9 66.2-30.7 63.7-30.7 63.7-13.9Q63.7-6.55 59.4-2.93 55.1 0.7 47.45 0.7L47.45 0.7Z"
                                                                                                              opacity="1"
                                                                                                              transform="matrix(1,0,0,1,0,0)"
                                                                                                              fill="#ba3b0a"
                                                                                                              class="undefined-text-0"
                                                                                                              data-fill-palette-color="primary"
                                                                                                              id="text-0">
                                                                                                         </path>
                                                                                                    </svg></g>
                                                                                          </svg></g>
                                                                                </svg></g>
                                                                      </svg></g>
                                                            </svg></g>
                                                  </svg></g>
                                        </svg></g>
                              </svg></g>
                         <defs></defs>
                    </svg>
                    <rect width="512" height="320" fill="none" stroke="none" visibility="hidden"></rect>
               </g>
          </svg></g>
</svg>